<mxfile host="Electron" modified="2024-05-05T11:07:40.991Z" agent="Mozilla/5.0 (Windows NT 10.0; Win64; x64) AppleWebKit/537.36 (KHTML, like Gecko) draw.io/24.1.0 Chrome/120.0.6099.109 Electron/28.1.0 Safari/537.36" etag="HnRN3n0fI3v4R___X-fg" version="24.1.0" type="device">
  <diagram id="SuN_tZr9zy93ZAf2BfSO" name="PÃ¡gina-1">
    <mxGraphModel dx="674" dy="400" grid="1" gridSize="10" guides="1" tooltips="1" connect="1" arrows="1" fold="1" page="1" pageScale="1" pageWidth="827" pageHeight="1169" math="0" shadow="0">
      <root>
        <mxCell id="0" />
        <mxCell id="1" parent="0" />
        <mxCell id="djUS1vPbyfeASXktzGcw-22" value="" style="endArrow=none;html=1;rounded=0;exitX=1;exitY=0.5;exitDx=0;exitDy=0;entryX=0;entryY=0.5;entryDx=0;entryDy=0;startSize=2;endFill=0;" parent="1" target="djUS1vPbyfeASXktzGcw-4" edge="1">
          <mxGeometry width="50" height="50" relative="1" as="geometry">
            <mxPoint x="190" y="275" as="sourcePoint" />
            <mxPoint x="380" y="410" as="targetPoint" />
          </mxGeometry>
        </mxCell>
        <mxCell id="AI3Qx4aCdEkBwOObVNkq-5" value="Text" style="edgeLabel;html=1;align=center;verticalAlign=middle;resizable=0;points=[];" vertex="1" connectable="0" parent="djUS1vPbyfeASXktzGcw-22">
          <mxGeometry x="0.0494" relative="1" as="geometry">
            <mxPoint as="offset" />
          </mxGeometry>
        </mxCell>
        <mxCell id="djUS1vPbyfeASXktzGcw-23" value="" style="endArrow=none;html=1;rounded=0;entryX=0;entryY=0.5;entryDx=0;entryDy=0;exitX=1;exitY=0.5;exitDx=0;exitDy=0;startSize=2;endFill=0;" parent="1" target="djUS1vPbyfeASXktzGcw-5" edge="1">
          <mxGeometry width="50" height="50" relative="1" as="geometry">
            <mxPoint x="190" y="275" as="sourcePoint" />
            <mxPoint x="380" y="490" as="targetPoint" />
          </mxGeometry>
        </mxCell>
        <mxCell id="djUS1vPbyfeASXktzGcw-25" value="" style="endArrow=none;html=1;rounded=0;entryX=0;entryY=0.5;entryDx=0;entryDy=0;exitX=1;exitY=0.5;exitDx=0;exitDy=0;startSize=2;endFill=0;" parent="1" target="djUS1vPbyfeASXktzGcw-6" edge="1">
          <mxGeometry width="50" height="50" relative="1" as="geometry">
            <mxPoint x="190" y="275" as="sourcePoint" />
            <mxPoint x="380" y="650" as="targetPoint" />
          </mxGeometry>
        </mxCell>
        <mxCell id="djUS1vPbyfeASXktzGcw-26" value="" style="endArrow=none;html=1;rounded=0;entryX=0;entryY=0.5;entryDx=0;entryDy=0;exitX=1;exitY=0.5;exitDx=0;exitDy=0;startSize=2;endFill=0;" parent="1" target="djUS1vPbyfeASXktzGcw-7" edge="1">
          <mxGeometry width="50" height="50" relative="1" as="geometry">
            <mxPoint x="190" y="275" as="sourcePoint" />
            <mxPoint x="380" y="730" as="targetPoint" />
          </mxGeometry>
        </mxCell>
        <mxCell id="djUS1vPbyfeASXktzGcw-31" value="" style="endArrow=none;html=1;rounded=0;entryX=0;entryY=0.5;entryDx=0;entryDy=0;exitX=1;exitY=0.5;exitDx=0;exitDy=0;startSize=2;endFill=0;" parent="1" target="djUS1vPbyfeASXktzGcw-8" edge="1">
          <mxGeometry width="50" height="50" relative="1" as="geometry">
            <mxPoint x="190" y="275" as="sourcePoint" />
            <mxPoint x="340" y="365" as="targetPoint" />
          </mxGeometry>
        </mxCell>
        <mxCell id="djUS1vPbyfeASXktzGcw-4" value="L1" style="whiteSpace=wrap;html=1;aspect=fixed;fillColor=#fff2cc;strokeColor=#d6b656;" parent="1" vertex="1">
          <mxGeometry x="330" y="90" width="50" height="50" as="geometry" />
        </mxCell>
        <mxCell id="djUS1vPbyfeASXktzGcw-5" value="L2" style="whiteSpace=wrap;html=1;aspect=fixed;fillColor=#fff2cc;strokeColor=#d6b656;" parent="1" vertex="1">
          <mxGeometry x="330" y="170" width="50" height="50" as="geometry" />
        </mxCell>
        <mxCell id="djUS1vPbyfeASXktzGcw-6" value="L3" style="whiteSpace=wrap;html=1;aspect=fixed;fillColor=#fff2cc;strokeColor=#d6b656;" parent="1" vertex="1">
          <mxGeometry x="330" y="250" width="50" height="50" as="geometry" />
        </mxCell>
        <mxCell id="djUS1vPbyfeASXktzGcw-7" value="L4" style="whiteSpace=wrap;html=1;aspect=fixed;fillColor=#fff2cc;strokeColor=#d6b656;" parent="1" vertex="1">
          <mxGeometry x="330" y="330" width="50" height="50" as="geometry" />
        </mxCell>
        <mxCell id="djUS1vPbyfeASXktzGcw-8" value="L5" style="whiteSpace=wrap;html=1;aspect=fixed;fillColor=#fff2cc;strokeColor=#d6b656;" parent="1" vertex="1">
          <mxGeometry x="330" y="410" width="50" height="50" as="geometry" />
        </mxCell>
        <mxCell id="djUS1vPbyfeASXktzGcw-9" value="" style="whiteSpace=wrap;html=1;aspect=fixed;fillColor=#dae8fc;strokeColor=#6c8ebf;" parent="1" vertex="1">
          <mxGeometry x="510" y="155" width="50" height="50" as="geometry" />
        </mxCell>
        <mxCell id="djUS1vPbyfeASXktzGcw-10" value="" style="whiteSpace=wrap;html=1;aspect=fixed;fillColor=#dae8fc;strokeColor=#6c8ebf;" parent="1" vertex="1">
          <mxGeometry x="510" y="255" width="50" height="50" as="geometry" />
        </mxCell>
        <mxCell id="djUS1vPbyfeASXktzGcw-11" value="" style="whiteSpace=wrap;html=1;aspect=fixed;fillColor=#dae8fc;strokeColor=#6c8ebf;" parent="1" vertex="1">
          <mxGeometry x="510" y="345" width="50" height="50" as="geometry" />
        </mxCell>
        <mxCell id="djUS1vPbyfeASXktzGcw-24" value="" style="endArrow=none;html=1;rounded=0;exitX=1;exitY=0.5;exitDx=0;exitDy=0;startSize=2;endFill=0;entryX=0;entryY=0.5;entryDx=0;entryDy=0;" parent="1" target="djUS1vPbyfeASXktzGcw-6" edge="1">
          <mxGeometry width="50" height="50" relative="1" as="geometry">
            <mxPoint x="190" y="275" as="sourcePoint" />
            <mxPoint x="380" y="570" as="targetPoint" />
          </mxGeometry>
        </mxCell>
        <mxCell id="djUS1vPbyfeASXktzGcw-40" value="" style="endArrow=none;html=1;rounded=0;entryX=0;entryY=0.5;entryDx=0;entryDy=0;exitX=1;exitY=0.5;exitDx=0;exitDy=0;startSize=2;endFill=0;" parent="1" source="djUS1vPbyfeASXktzGcw-4" target="djUS1vPbyfeASXktzGcw-9" edge="1">
          <mxGeometry width="50" height="50" relative="1" as="geometry">
            <mxPoint x="260" y="230" as="sourcePoint" />
            <mxPoint x="310" y="180" as="targetPoint" />
          </mxGeometry>
        </mxCell>
        <mxCell id="djUS1vPbyfeASXktzGcw-56" value="b&lt;sub&gt;1&lt;/sub&gt;, t&lt;sub&gt;11&lt;/sub&gt;&amp;nbsp;" style="edgeLabel;html=1;align=center;verticalAlign=middle;resizable=0;points=[];" parent="djUS1vPbyfeASXktzGcw-40" vertex="1" connectable="0">
          <mxGeometry x="-0.4338" relative="1" as="geometry">
            <mxPoint x="7" as="offset" />
          </mxGeometry>
        </mxCell>
        <mxCell id="djUS1vPbyfeASXktzGcw-41" value="" style="endArrow=none;html=1;rounded=0;entryX=0;entryY=0.5;entryDx=0;entryDy=0;exitX=1;exitY=0.5;exitDx=0;exitDy=0;startSize=2;endFill=0;" parent="1" source="djUS1vPbyfeASXktzGcw-4" target="djUS1vPbyfeASXktzGcw-10" edge="1">
          <mxGeometry width="50" height="50" relative="1" as="geometry">
            <mxPoint x="390" y="125" as="sourcePoint" />
            <mxPoint x="520" y="190" as="targetPoint" />
          </mxGeometry>
        </mxCell>
        <mxCell id="djUS1vPbyfeASXktzGcw-57" value="b&lt;sub&gt;1&lt;/sub&gt;, t&lt;sub&gt;12&lt;/sub&gt;&amp;nbsp;" style="edgeLabel;html=1;align=center;verticalAlign=middle;resizable=0;points=[];" parent="djUS1vPbyfeASXktzGcw-41" vertex="1" connectable="0">
          <mxGeometry x="-0.4128" y="2" relative="1" as="geometry">
            <mxPoint x="6" as="offset" />
          </mxGeometry>
        </mxCell>
        <mxCell id="djUS1vPbyfeASXktzGcw-42" value="" style="endArrow=none;html=1;rounded=0;entryX=0;entryY=0.5;entryDx=0;entryDy=0;exitX=1;exitY=0.5;exitDx=0;exitDy=0;startSize=2;endFill=0;" parent="1" source="djUS1vPbyfeASXktzGcw-4" target="djUS1vPbyfeASXktzGcw-11" edge="1">
          <mxGeometry width="50" height="50" relative="1" as="geometry">
            <mxPoint x="390" y="125" as="sourcePoint" />
            <mxPoint x="520" y="290" as="targetPoint" />
          </mxGeometry>
        </mxCell>
        <mxCell id="djUS1vPbyfeASXktzGcw-43" value="" style="endArrow=none;html=1;rounded=0;entryX=0;entryY=0.5;entryDx=0;entryDy=0;exitX=1;exitY=0.5;exitDx=0;exitDy=0;startSize=2;endFill=0;" parent="1" source="djUS1vPbyfeASXktzGcw-5" target="djUS1vPbyfeASXktzGcw-9" edge="1">
          <mxGeometry width="50" height="50" relative="1" as="geometry">
            <mxPoint x="390" y="125" as="sourcePoint" />
            <mxPoint x="520" y="190" as="targetPoint" />
          </mxGeometry>
        </mxCell>
        <mxCell id="djUS1vPbyfeASXktzGcw-44" value="" style="endArrow=none;html=1;rounded=0;entryX=0;entryY=0.5;entryDx=0;entryDy=0;exitX=1;exitY=0.5;exitDx=0;exitDy=0;startSize=2;endFill=0;" parent="1" source="djUS1vPbyfeASXktzGcw-5" target="djUS1vPbyfeASXktzGcw-10" edge="1">
          <mxGeometry width="50" height="50" relative="1" as="geometry">
            <mxPoint x="390" y="125" as="sourcePoint" />
            <mxPoint x="520" y="290" as="targetPoint" />
          </mxGeometry>
        </mxCell>
        <mxCell id="djUS1vPbyfeASXktzGcw-45" value="" style="endArrow=none;html=1;rounded=0;exitX=1;exitY=0.5;exitDx=0;exitDy=0;startSize=2;endFill=0;" parent="1" source="djUS1vPbyfeASXktzGcw-5" edge="1">
          <mxGeometry width="50" height="50" relative="1" as="geometry">
            <mxPoint x="390" y="125" as="sourcePoint" />
            <mxPoint x="510" y="370" as="targetPoint" />
          </mxGeometry>
        </mxCell>
        <mxCell id="djUS1vPbyfeASXktzGcw-46" value="" style="endArrow=none;html=1;rounded=0;entryX=0;entryY=0.5;entryDx=0;entryDy=0;exitX=1;exitY=0.5;exitDx=0;exitDy=0;startSize=2;endFill=0;" parent="1" source="djUS1vPbyfeASXktzGcw-6" target="djUS1vPbyfeASXktzGcw-9" edge="1">
          <mxGeometry width="50" height="50" relative="1" as="geometry">
            <mxPoint x="380" y="280" as="sourcePoint" />
            <mxPoint x="520" y="190" as="targetPoint" />
          </mxGeometry>
        </mxCell>
        <mxCell id="djUS1vPbyfeASXktzGcw-47" value="" style="endArrow=none;html=1;rounded=0;entryX=0;entryY=0.5;entryDx=0;entryDy=0;exitX=1;exitY=0.5;exitDx=0;exitDy=0;startSize=2;endFill=0;" parent="1" source="djUS1vPbyfeASXktzGcw-6" target="djUS1vPbyfeASXktzGcw-10" edge="1">
          <mxGeometry width="50" height="50" relative="1" as="geometry">
            <mxPoint x="380" y="270" as="sourcePoint" />
            <mxPoint x="520" y="290" as="targetPoint" />
          </mxGeometry>
        </mxCell>
        <mxCell id="djUS1vPbyfeASXktzGcw-48" value="" style="endArrow=none;html=1;rounded=0;entryX=0;entryY=0.5;entryDx=0;entryDy=0;exitX=1;exitY=0.5;exitDx=0;exitDy=0;startSize=2;endFill=0;" parent="1" source="djUS1vPbyfeASXktzGcw-6" target="djUS1vPbyfeASXktzGcw-11" edge="1">
          <mxGeometry width="50" height="50" relative="1" as="geometry">
            <mxPoint x="390" y="125" as="sourcePoint" />
            <mxPoint x="520" y="380" as="targetPoint" />
          </mxGeometry>
        </mxCell>
        <mxCell id="djUS1vPbyfeASXktzGcw-49" value="" style="endArrow=none;html=1;rounded=0;entryX=0;entryY=0.5;entryDx=0;entryDy=0;exitX=1;exitY=0.5;exitDx=0;exitDy=0;startSize=2;endFill=0;" parent="1" target="djUS1vPbyfeASXktzGcw-9" edge="1">
          <mxGeometry width="50" height="50" relative="1" as="geometry">
            <mxPoint x="380" y="355" as="sourcePoint" />
            <mxPoint x="510" y="260" as="targetPoint" />
          </mxGeometry>
        </mxCell>
        <mxCell id="djUS1vPbyfeASXktzGcw-50" value="" style="endArrow=none;html=1;rounded=0;entryX=0;entryY=0.5;entryDx=0;entryDy=0;exitX=1;exitY=0.5;exitDx=0;exitDy=0;startSize=2;endFill=0;" parent="1" target="djUS1vPbyfeASXktzGcw-10" edge="1">
          <mxGeometry width="50" height="50" relative="1" as="geometry">
            <mxPoint x="380" y="355" as="sourcePoint" />
            <mxPoint x="510" y="360" as="targetPoint" />
          </mxGeometry>
        </mxCell>
        <mxCell id="djUS1vPbyfeASXktzGcw-51" value="" style="endArrow=none;html=1;rounded=0;entryX=0;entryY=0.5;entryDx=0;entryDy=0;exitX=1;exitY=0.5;exitDx=0;exitDy=0;startSize=2;endFill=0;" parent="1" target="djUS1vPbyfeASXktzGcw-11" edge="1">
          <mxGeometry width="50" height="50" relative="1" as="geometry">
            <mxPoint x="380" y="355" as="sourcePoint" />
            <mxPoint x="510" y="450" as="targetPoint" />
          </mxGeometry>
        </mxCell>
        <mxCell id="djUS1vPbyfeASXktzGcw-52" value="" style="endArrow=none;html=1;rounded=0;entryX=0;entryY=0.5;entryDx=0;entryDy=0;exitX=1;exitY=0.5;exitDx=0;exitDy=0;startSize=2;endFill=0;" parent="1" target="djUS1vPbyfeASXktzGcw-9" edge="1">
          <mxGeometry width="50" height="50" relative="1" as="geometry">
            <mxPoint x="380" y="435" as="sourcePoint" />
            <mxPoint x="510" y="340" as="targetPoint" />
          </mxGeometry>
        </mxCell>
        <mxCell id="djUS1vPbyfeASXktzGcw-60" value="b&lt;font size=&quot;1&quot;&gt;&lt;sub&gt;5&lt;/sub&gt;&lt;/font&gt;, t&lt;sub&gt;51&lt;/sub&gt;&amp;nbsp;" style="edgeLabel;html=1;align=center;verticalAlign=middle;resizable=0;points=[];" parent="djUS1vPbyfeASXktzGcw-52" vertex="1" connectable="0">
          <mxGeometry x="-0.5686" y="-2" relative="1" as="geometry">
            <mxPoint y="-12" as="offset" />
          </mxGeometry>
        </mxCell>
        <mxCell id="djUS1vPbyfeASXktzGcw-53" value="" style="endArrow=none;html=1;rounded=0;entryX=0;entryY=0.5;entryDx=0;entryDy=0;exitX=1;exitY=0.5;exitDx=0;exitDy=0;startSize=2;endFill=0;" parent="1" target="djUS1vPbyfeASXktzGcw-10" edge="1">
          <mxGeometry width="50" height="50" relative="1" as="geometry">
            <mxPoint x="380" y="435" as="sourcePoint" />
            <mxPoint x="510" y="440" as="targetPoint" />
          </mxGeometry>
        </mxCell>
        <mxCell id="djUS1vPbyfeASXktzGcw-61" value="b&lt;sub&gt;5&lt;/sub&gt;, t&lt;sub&gt;52&lt;/sub&gt;&amp;nbsp;" style="edgeLabel;html=1;align=center;verticalAlign=middle;resizable=0;points=[];" parent="djUS1vPbyfeASXktzGcw-53" vertex="1" connectable="0">
          <mxGeometry x="-0.4114" y="-1" relative="1" as="geometry">
            <mxPoint x="-8" y="10" as="offset" />
          </mxGeometry>
        </mxCell>
        <mxCell id="djUS1vPbyfeASXktzGcw-54" value="" style="endArrow=none;html=1;rounded=0;entryX=0;entryY=0.5;entryDx=0;entryDy=0;exitX=1;exitY=0.5;exitDx=0;exitDy=0;startSize=2;endFill=0;" parent="1" target="djUS1vPbyfeASXktzGcw-11" edge="1">
          <mxGeometry width="50" height="50" relative="1" as="geometry">
            <mxPoint x="380" y="435" as="sourcePoint" />
            <mxPoint x="510" y="530" as="targetPoint" />
          </mxGeometry>
        </mxCell>
        <mxCell id="djUS1vPbyfeASXktzGcw-62" value="b&lt;sub&gt;5&lt;/sub&gt;, t&lt;sub&gt;53&lt;/sub&gt;&amp;nbsp;" style="edgeLabel;html=1;align=center;verticalAlign=middle;resizable=0;points=[];" parent="djUS1vPbyfeASXktzGcw-54" vertex="1" connectable="0">
          <mxGeometry x="-0.5385" y="-2" relative="1" as="geometry">
            <mxPoint x="1" y="1" as="offset" />
          </mxGeometry>
        </mxCell>
        <mxCell id="djUS1vPbyfeASXktzGcw-58" value="b&lt;sub&gt;1&lt;/sub&gt;, t&lt;sub&gt;13&lt;/sub&gt;&amp;nbsp;" style="edgeLabel;html=1;align=center;verticalAlign=middle;resizable=0;points=[];" parent="1" vertex="1" connectable="0">
          <mxGeometry x="410.0010613938728" y="195.00273922490013" as="geometry">
            <mxPoint x="13" y="-2" as="offset" />
          </mxGeometry>
        </mxCell>
        <mxCell id="djUS1vPbyfeASXktzGcw-63" value="" style="ellipse;whiteSpace=wrap;html=1;aspect=fixed;fillColor=#f5f5f5;fontColor=#333333;strokeColor=#666666;" parent="1" vertex="1">
          <mxGeometry x="640" y="260" width="40" height="40" as="geometry" />
        </mxCell>
        <mxCell id="djUS1vPbyfeASXktzGcw-64" value="" style="ellipse;whiteSpace=wrap;html=1;aspect=fixed;fillColor=#f5f5f5;fontColor=#333333;strokeColor=#666666;" parent="1" vertex="1">
          <mxGeometry x="150" y="255" width="40" height="40" as="geometry" />
        </mxCell>
        <mxCell id="djUS1vPbyfeASXktzGcw-71" value="" style="endArrow=none;html=1;rounded=0;exitX=1;exitY=0.5;exitDx=0;exitDy=0;entryX=0;entryY=0.5;entryDx=0;entryDy=0;startSize=2;endFill=0;" parent="1" source="djUS1vPbyfeASXktzGcw-9" target="djUS1vPbyfeASXktzGcw-63" edge="1">
          <mxGeometry width="50" height="50" relative="1" as="geometry">
            <mxPoint x="600" y="490" as="sourcePoint" />
            <mxPoint x="670" y="395" as="targetPoint" />
          </mxGeometry>
        </mxCell>
        <mxCell id="djUS1vPbyfeASXktzGcw-72" value="d&lt;sub&gt;1&lt;/sub&gt;, 0&amp;nbsp;" style="edgeLabel;html=1;align=center;verticalAlign=middle;resizable=0;points=[];endArrow=none;rounded=0;strokeColor=default;startSize=2;endFill=0;" parent="djUS1vPbyfeASXktzGcw-71" vertex="1" connectable="0">
          <mxGeometry x="-0.2462" y="-1" relative="1" as="geometry">
            <mxPoint x="-2" y="-8" as="offset" />
          </mxGeometry>
        </mxCell>
        <mxCell id="djUS1vPbyfeASXktzGcw-73" value="" style="endArrow=none;html=1;rounded=0;exitX=1;exitY=0.5;exitDx=0;exitDy=0;entryX=0;entryY=0.5;entryDx=0;entryDy=0;startSize=2;endFill=0;" parent="1" source="djUS1vPbyfeASXktzGcw-10" target="djUS1vPbyfeASXktzGcw-63" edge="1">
          <mxGeometry width="50" height="50" relative="1" as="geometry">
            <mxPoint x="600" y="490" as="sourcePoint" />
            <mxPoint x="670" y="490" as="targetPoint" />
          </mxGeometry>
        </mxCell>
        <mxCell id="djUS1vPbyfeASXktzGcw-74" value="d&lt;sub&gt;2&lt;/sub&gt;, 0&amp;nbsp;" style="edgeLabel;html=1;align=center;verticalAlign=middle;resizable=0;points=[];endArrow=none;rounded=0;strokeColor=default;startSize=2;endFill=0;" parent="djUS1vPbyfeASXktzGcw-73" vertex="1" connectable="0">
          <mxGeometry x="-0.2462" y="-1" relative="1" as="geometry">
            <mxPoint x="-3" y="-1" as="offset" />
          </mxGeometry>
        </mxCell>
        <mxCell id="djUS1vPbyfeASXktzGcw-75" value="" style="endArrow=none;html=1;rounded=0;exitX=1;exitY=0.5;exitDx=0;exitDy=0;entryX=0;entryY=0.5;entryDx=0;entryDy=0;startSize=2;endFill=0;" parent="1" source="djUS1vPbyfeASXktzGcw-11" target="djUS1vPbyfeASXktzGcw-63" edge="1">
          <mxGeometry width="50" height="50" relative="1" as="geometry">
            <mxPoint x="600" y="490" as="sourcePoint" />
            <mxPoint x="670" y="585" as="targetPoint" />
          </mxGeometry>
        </mxCell>
        <mxCell id="djUS1vPbyfeASXktzGcw-76" value="d&lt;font size=&quot;1&quot;&gt;3&lt;/font&gt;, 0&amp;nbsp;" style="edgeLabel;html=1;align=center;verticalAlign=middle;resizable=0;points=[];endArrow=none;rounded=0;strokeColor=default;startSize=2;endFill=0;" parent="djUS1vPbyfeASXktzGcw-75" vertex="1" connectable="0">
          <mxGeometry x="-0.2462" y="-1" relative="1" as="geometry">
            <mxPoint x="-3" y="-1" as="offset" />
          </mxGeometry>
        </mxCell>
        <mxCell id="KqHIkJuDY8_jqeDVKqRZ-1" value="Source node&#xa;(artificial)" style="text;strokeColor=none;fillColor=none;align=left;verticalAlign=middle;spacingLeft=4;spacingRight=4;overflow=hidden;points=[[0,0.5],[1,0.5]];portConstraint=eastwest;rotatable=0;" parent="1" vertex="1">
          <mxGeometry x="140" y="210" width="80" height="30" as="geometry" />
        </mxCell>
        <mxCell id="KqHIkJuDY8_jqeDVKqRZ-2" value="Transportation modes" style="text;strokeColor=none;fillColor=none;align=left;verticalAlign=middle;spacingLeft=4;spacingRight=4;overflow=hidden;points=[[0,0.5],[1,0.5]];portConstraint=eastwest;rotatable=0;" parent="1" vertex="1">
          <mxGeometry x="105" y="100" width="120" height="30" as="geometry" />
        </mxCell>
        <mxCell id="KqHIkJuDY8_jqeDVKqRZ-3" value="Locations" style="text;strokeColor=none;fillColor=none;align=left;verticalAlign=middle;spacingLeft=4;spacingRight=4;overflow=hidden;points=[[0,0.5],[1,0.5]];portConstraint=eastwest;rotatable=0;" parent="1" vertex="1">
          <mxGeometry x="320" y="50" width="145" height="30" as="geometry" />
        </mxCell>
        <mxCell id="KqHIkJuDY8_jqeDVKqRZ-4" value="Retail regions" style="text;strokeColor=none;fillColor=none;align=left;verticalAlign=middle;spacingLeft=4;spacingRight=4;overflow=hidden;points=[[0,0.5],[1,0.5]];portConstraint=eastwest;rotatable=0;" parent="1" vertex="1">
          <mxGeometry x="490" y="100" width="90" height="30" as="geometry" />
        </mxCell>
        <mxCell id="KqHIkJuDY8_jqeDVKqRZ-5" value="Sink node&#xa;(artificial)" style="text;strokeColor=none;fillColor=none;align=left;verticalAlign=middle;spacingLeft=4;spacingRight=4;overflow=hidden;points=[[0,0.5],[1,0.5]];portConstraint=eastwest;rotatable=0;" parent="1" vertex="1">
          <mxGeometry x="630" y="210" width="80" height="30" as="geometry" />
        </mxCell>
        <mxCell id="AI3Qx4aCdEkBwOObVNkq-1" value="L6" style="whiteSpace=wrap;html=1;aspect=fixed;fillColor=#fff2cc;strokeColor=#d6b656;" vertex="1" parent="1">
          <mxGeometry x="330" y="490" width="50" height="50" as="geometry" />
        </mxCell>
        <mxCell id="AI3Qx4aCdEkBwOObVNkq-3" value="" style="endArrow=none;html=1;rounded=0;entryX=0;entryY=0.5;entryDx=0;entryDy=0;exitX=1;exitY=0.5;exitDx=0;exitDy=0;startSize=2;endFill=0;" edge="1" parent="1" target="AI3Qx4aCdEkBwOObVNkq-1">
          <mxGeometry width="50" height="50" relative="1" as="geometry">
            <mxPoint x="190" y="275" as="sourcePoint" />
            <mxPoint x="340" y="445" as="targetPoint" />
          </mxGeometry>
        </mxCell>
      </root>
    </mxGraphModel>
  </diagram>
</mxfile>
